<svg width="185" height="187" viewBox="0 0 185 187" fill="none" xmlns="http://www.w3.org/2000/svg">
<path d="M182.773 74.9048C185.197 88.9167 170.331 85.1845 170.331 85.1845C164.11 67.6369 154.156 69.2738 154.156 69.2738C161.949 74.9703 162.538 79.8155 162.538 79.8155C141.779 65.0834 113.554 76.9345 102.814 82.5C96.7894 73.9881 84.6089 54.9345 88.931 46.2917C94.6283 34.9643 106.219 41.4464 106.219 41.4464C129.664 41.0536 128.354 32.6726 128.354 32.6726C122.133 37.5179 103.796 32.6726 103.796 32.6726C119.71 32.6726 126.455 26.1905 126.455 26.1905C114.602 29.1369 101.373 16.5 101.373 16.5C96.5275 -8.31546 74.131 2.22621 74.131 2.22621C88.1452 -0.196409 84.4124 14.6667 84.4124 14.6667C66.862 20.8869 68.4991 30.8393 68.4991 30.8393C74.1965 23.0476 79.0425 22.4584 79.0425 22.4584C62.9983 45.0476 78.4531 76.4762 83.0372 84.6607C74.6549 90.4881 55.0089 103.321 46.1682 98.8691C34.839 93.1726 41.3221 81.5834 41.3221 81.5834C41.0602 58.1429 32.6779 59.4524 32.6779 59.4524C37.5239 65.6726 32.6779 84.006 32.6779 84.006C32.6779 68.0953 26.1947 61.3512 26.1947 61.3512C29.1416 73.2024 16.5027 86.4286 16.5027 86.4286C-8.3168 91.2738 2.22657 113.667 2.22657 113.667C-0.196441 99.6548 14.669 103.387 14.669 103.387C20.8903 120.935 30.8443 119.298 30.8443 119.298C23.0513 113.601 22.462 108.756 22.462 108.756C44.4 124.339 74.7204 110.196 83.8885 105.22C90.0443 114.06 101.504 132.262 97.2478 140.708C91.5505 152.036 79.9593 145.554 79.9593 145.554C56.5151 145.815 57.8248 154.196 57.8248 154.196C64.0461 149.351 82.3823 154.196 82.3823 154.196C66.4691 154.196 59.7239 160.679 59.7239 160.679C71.577 157.732 84.8053 170.369 84.8053 170.369C89.6514 195.185 112.048 184.643 112.048 184.643C98.0337 187.065 101.766 172.202 101.766 172.202C119.317 165.982 117.68 156.03 117.68 156.03C111.982 163.821 107.136 164.411 107.136 164.411C122.853 142.345 108.381 111.768 103.469 102.798C112.375 96.5774 130.384 85.4464 138.701 89.6369C150.03 95.3333 143.547 106.923 143.547 106.923C143.809 130.363 152.191 129.054 152.191 129.054C147.345 122.833 152.191 104.5 152.191 104.5C152.191 120.411 158.674 127.155 158.674 127.155C155.727 115.304 168.366 102.077 168.366 102.077C193.317 97.2976 182.773 74.9048 182.773 74.9048Z" fill="url(#paint0_linear_16_119)"/>
<defs>
<linearGradient id="paint0_linear_16_119" x1="92.4937" y1="0.00195312" x2="92.4937" y2="186.867" gradientUnits="userSpaceOnUse">
<stop stop-color="#C0B7E8"/>
<stop offset="1" stop-color="#8176AF"/>
</linearGradient>
</defs>
</svg>
